<?xml version="1.0" encoding="utf-8"?>
<!-- Generator: Adobe Illustrator 16.0.0, SVG Export Plug-In . SVG Version: 6.00 Build 0)  -->
<!DOCTYPE svg PUBLIC "-//W3C//DTD SVG 1.1//EN" "http://www.w3.org/Graphics/SVG/1.1/DTD/svg11.dtd">
<svg version="1.1" id="Layer_1" xmlns="http://www.w3.org/2000/svg" xmlns:xlink="http://www.w3.org/1999/xlink" x="0px" y="0px"
	 width="73px" height="73px" viewBox="0 0 73 73" enable-background="new 0 0 73 73" xml:space="preserve">
<g>
	<path fill-rule="evenodd" clip-rule="evenodd" fill="#3855CA" d="M36.37,10.681c0.877-0.59,1.642-1.273,2.534-1.673
		c2.509-1.123,4.878-0.7,6.892,1.125c2.059,1.864,2.718,4.238,1.773,6.87c-0.444,1.238-1.138,2.43-1.916,3.496
		c-2.455,3.362-5.63,6.015-8.827,8.634c-0.379,0.312-0.638,0.071-0.871-0.139c-2.313-2.095-4.659-4.153-6.899-6.323
		c-1.412-1.366-2.548-2.983-3.374-4.789c-1.916-4.184,0.417-8.679,4.915-9.384c2.071-0.325,3.87,0.347,5.392,1.774
		c0.145,0.138,0.281,0.284,0.425,0.425C36.427,10.712,36.453,10.715,36.37,10.681z M36.575,27.051
		c1.848-1.729,3.624-3.317,5.317-4.994c1.477-1.462,2.806-3.058,3.672-4.982c0.441-0.981,0.596-1.954,0.274-3.04
		c-0.554-1.866-1.913-3.128-3.877-3.401c-1.729-0.24-3.495,0.682-4.42,2.302c-0.109,0.192-0.208,0.4-0.354,0.563
		c-0.426,0.476-1.065,0.428-1.423-0.097c-0.126-0.184-0.21-0.396-0.329-0.582c-0.994-1.575-2.428-2.367-4.282-2.18
		c-1.938,0.195-3.233,1.291-3.851,3.146c-0.444,1.344-0.201,2.656,0.547,3.78c1.007,1.517,2.065,3.028,3.307,4.35
		C32.831,23.696,34.701,25.292,36.575,27.051z"/>
	<polygon fill="#1A2151" points="55.228,34.514 55.228,34.516 55.228,34.516 	"/>
	<polygon fill="#1A2151" points="36.5,40.12 36.5,40.122 36.5,40.122 	"/>
	<polygon fill="#1A2151" points="17.773,34.513 17.773,34.514 17.773,34.514 	"/>
	<path fill="#1A2151" d="M62.057,45.637c-0.977-0.357-1.938-0.75-2.911-1.15c-0.447-0.184-0.896-0.367-1.351-0.549
		c-0.267-0.107-0.449-0.359-0.469-0.646s0.127-0.561,0.377-0.703c3.118-1.773,3.55-4.734,2.973-6.73
		c-0.664-2.283-2.815-4.001-5.114-4.082l-0.235-0.005c-2.467,0-4.592,1.439-5.413,3.668c-0.504,1.364-0.493,2.736,0.029,4.077
		c0.507,1.301,1.423,2.297,2.801,3.045c0.251,0.137,0.403,0.404,0.391,0.691c-0.012,0.285-0.186,0.539-0.447,0.654l-0.222,0.099
		c-0.154,0.068-0.282,0.125-0.413,0.178l-1.462,0.58c-0.897,0.355-1.794,0.711-2.686,1.078c-1.59,0.652-2.548,1.771-2.93,3.422
		c-0.069,0.303-0.099,0.641-0.131,0.998c-0.016,0.182-0.032,0.367-0.054,0.557c-0.026,0.23-0.16,0.438-0.36,0.557
		c-0.201,0.121-0.444,0.141-0.662,0.055l-4.696-1.883c-0.267-0.107-0.448-0.357-0.468-0.645s0.126-0.559,0.375-0.701
		c3.048-1.748,3.527-4.625,3.012-6.558c-0.634-2.379-2.686-4.09-5.104-4.258c-2.401-0.176-4.709,1.27-5.616,3.467
		c-0.571,1.381-0.603,2.783-0.091,4.169c0.491,1.34,1.429,2.377,2.865,3.172c0.254,0.139,0.404,0.414,0.387,0.703
		c-0.019,0.289-0.202,0.541-0.471,0.648l-4.762,1.904c-0.227,0.09-0.48,0.064-0.683-0.064c-0.204-0.131-0.332-0.354-0.345-0.594
		l-0.025-0.496c-0.111-2.203-1.143-3.672-3.154-4.494c-0.56-0.229-1.122-0.451-1.685-0.676l-1.229-0.49
		c-0.478-0.191-0.955-0.389-1.462-0.6l-0.271-0.113c-0.265-0.109-0.443-0.359-0.462-0.645c-0.018-0.287,0.129-0.557,0.378-0.699
		c3.129-1.783,3.548-4.748,2.957-6.745c-0.711-2.404-2.859-4.038-5.346-4.064c-0.001,0-0.001,0-0.001,0
		c-2.57,0-4.758,1.606-5.515,3.998c-0.687,2.17-0.047,5.12,2.93,6.817c0.248,0.141,0.395,0.41,0.378,0.695
		c-0.017,0.283-0.193,0.535-0.456,0.646l-0.224,0.095c-0.136,0.059-0.265,0.115-0.394,0.166l-1.431,0.57
		c-0.892,0.355-1.783,0.711-2.671,1.072c-1.625,0.666-2.6,1.813-2.977,3.51c-0.02,0.102-0.057,0.193-0.092,0.268v15.254
		c0.176,0.307,0.412,0.543,0.716,0.717h56.727c0.308-0.176,0.544-0.412,0.718-0.715V49.676c-0.021-0.043-0.038-0.092-0.052-0.146
		C65.147,47.59,64.047,46.366,62.057,45.637z M14.09,37.433c0.005-2.021,1.653-3.666,3.675-3.67c0,0,0.008,0,0.009,0
		c2.038,0,3.655,1.599,3.68,3.639c0.01,0.992-0.366,1.921-1.059,2.619c-0.694,0.701-1.626,1.088-2.622,1.088
		C15.734,41.101,14.09,39.452,14.09,37.433z M26.148,62.208c0,0.131-0.007,0.262-0.014,0.4l-0.01,0.223
		c-0.015,0.402-0.347,0.723-0.75,0.723H10.193c-0.4,0-0.729-0.314-0.749-0.715l-0.011-0.182c-0.009-0.146-0.018-0.287-0.018-0.43
		V50.584c0-1.539,0.574-2.398,1.983-2.967l1.788-0.717c0.841-0.334,1.683-0.67,2.521-1.014c0.421-0.172,0.831-0.363,1.215-0.543
		l0.473-0.221c0.188-0.084,0.402-0.09,0.594-0.012l1.497,0.609c1.521,0.619,3.031,1.234,4.546,1.844
		c1.563,0.629,2.118,1.443,2.12,3.115C26.152,54.522,26.152,58.366,26.148,62.208z M32.826,43.073
		c-0.004-0.994,0.378-1.926,1.075-2.625c0.693-0.695,1.616-1.078,2.599-1.078c0.002,0,0.029,0,0.031,0
		c2.013,0.018,3.646,1.674,3.641,3.693c-0.002,2.015-1.647,3.656-3.667,3.658C34.451,46.721,32.836,45.12,32.826,43.073z
		 M44.854,62.801c0,0.414-0.336,0.75-0.75,0.75H28.896c-0.414,0-0.75-0.336-0.75-0.75l-0.001-2.584
		c-0.001-1.4-0.002-2.799,0.005-4.197c0.005-1.361,0.599-2.234,1.869-2.744c0.501-0.201,1.007-0.395,1.512-0.588
		c1.113-0.428,2.264-0.869,3.337-1.389c1.229-0.596,2.106-0.59,3.228-0.02c1.018,0.518,2.132,0.936,3.21,1.34
		c0.489,0.184,0.979,0.367,1.463,0.561c1.537,0.615,2.083,1.42,2.085,3.078V62.801z M52.587,40.003
		c-0.685-0.705-1.055-1.633-1.04-2.616c0.029-2.031,1.646-3.623,3.681-3.623c0.001,0,0.02,0,0.021,0
		c2.025,0.01,3.668,1.662,3.66,3.684c-0.01,2.02-1.671,3.661-3.704,3.661C54.183,41.097,53.269,40.704,52.587,40.003z
		 M63.582,62.813c0,0.414-0.336,0.75-0.75,0.75H47.598c-0.414,0-0.75-0.336-0.75-0.75l0.002-12.166c0-1.623,0.553-2.449,2.039-3.051
		l1.835-0.734c0.862-0.344,1.726-0.688,2.585-1.037c0.365-0.152,0.725-0.324,1.06-0.484l0.458-0.215
		c0.188-0.088,0.404-0.092,0.597-0.016l2.094,0.852c1.322,0.537,2.637,1.07,3.953,1.602c1.579,0.639,2.112,1.424,2.112,3.113V62.813
		z"/>
	<path fill="#1A2151" d="M58.27,11.223c1.197-0.547,2.607-1.213,3.985-1.994c0.396-0.225,0.458-0.582,0.46-0.774
		c0.003-0.37-0.194-0.708-0.526-0.903l-0.215-0.13h-0.543l-1.028,0.518c-0.963,0.484-1.925,0.968-2.878,1.469
		c-0.496,0.261-0.69,0.809-0.461,1.305C57.271,11.165,57.836,11.421,58.27,11.223z"/>
	<path fill="#1A2151" d="M11.093,9.443c0.678,0.325,1.347,0.662,2.017,0.999c0.422,0.213,0.844,0.425,1.268,0.634
		c0.656,0.325,1.274,0.205,1.545-0.335c0.329-0.651-0.117-1.171-0.644-1.439c-1.002-0.511-2.005-1.019-3.009-1.525l-0.7-0.354
		h-0.474c-0.027,0.015-0.058,0.027-0.09,0.039c-0.622,0.253-0.706,0.633-0.703,0.97C10.305,8.762,10.402,9.113,11.093,9.443z"/>
	<path fill="#1A2151" d="M62.224,22.557c-1.145-0.61-2.503-1.318-3.908-1.945c-0.123-0.055-0.249-0.083-0.372-0.083
		c-0.224,0-0.44,0.095-0.609,0.266c-0.229,0.231-0.354,0.579-0.35,0.979c0.003,0.086,0.083,0.384,0.415,0.558
		c1.539,0.812,2.801,1.442,3.97,1.985c0.441,0.208,1.01-0.029,1.229-0.481C62.836,23.346,62.674,22.797,62.224,22.557z"/>
	<path fill="#1A2151" d="M11.704,24.288c1.127-0.53,2.306-1.118,3.823-1.906c0.38-0.198,0.487-0.5,0.49-0.646
		c-0.001-0.781-0.491-1.199-0.975-1.199c-0.141,0-0.284,0.033-0.426,0.099c-1.319,0.609-2.592,1.261-3.771,1.875
		c-0.511,0.267-0.695,0.828-0.439,1.334C10.644,24.314,11.217,24.52,11.704,24.288z"/>
</g>
</svg>
