<?xml version="1.0" encoding="utf-8"?>
<!-- Generator: Adobe Illustrator 16.0.0, SVG Export Plug-In . SVG Version: 6.00 Build 0)  -->
<!DOCTYPE svg PUBLIC "-//W3C//DTD SVG 1.1//EN" "http://www.w3.org/Graphics/SVG/1.1/DTD/svg11.dtd">
<svg version="1.1" id="Layer_1" xmlns="http://www.w3.org/2000/svg" xmlns:xlink="http://www.w3.org/1999/xlink" x="0px" y="0px"
	 width="73px" height="73px" viewBox="0 0 73 73" enable-background="new 0 0 73 73" xml:space="preserve">
<path fill-rule="evenodd" clip-rule="evenodd" fill="#1A2151" d="M47.841,56.807c-3.394,4.576-8.061,6.463-13.518,6.957
	c0.428,1.113,0.871,2.266,1.314,3.422c0.103,0.27,0.213,0.537,0.301,0.813c0.17,0.539-0.063,1.117-0.509,1.305
	c-0.549,0.23-1.228-0.023-1.449-0.586c-0.629-1.596-1.226-3.205-1.869-4.793c-0.089-0.217-0.357-0.477-0.573-0.51
	c-4.469-0.662-8.176-2.883-11.503-5.762c-3.39-2.936-6.63-6.039-9.976-9.026c-1.629-1.453-3.323-2.837-5.029-4.205
	c-1.745-1.402-2.251-3.725-1.17-5.712c1.064-1.959,3.171-2.751,5.308-2.079c1.959,0.615,3.62,1.694,5.164,3.005
	c1.224,1.039,2.463,2.063,3.719,3.063c0.232,0.188,0.57,0.24,0.86,0.353c0.037-0.332,0.162-0.686,0.092-0.994
	c-0.977-4.278-1.979-8.551-2.976-12.825c-0.582-2.496-1.158-4.992-1.743-7.486c-0.85-3.622,2.021-6.411,5.625-5.464
	c0.127,0.036,0.26,0.054,0.393,0.081c0.218-2.291,1.31-3.955,3.485-4.718c2.163-0.761,3.975-0.018,5.534,1.651
	c1.058-1.221,2.415-1.72,3.996-1.545c1.594,0.178,2.772,1.026,3.582,2.436c1.048-0.973,2.243-1.381,3.642-1.134
	c1.519,0.271,2.604,1.33,2.96,2.815c1.046,4.355,2.119,8.701,3.165,13.056c0.101,0.425,0.298,0.555,0.722,0.576
	c1.328,0.063,2.652,0.033,3.969,0.404c1.64,0.463,3.112,1.174,4.425,2.263c0.294,0.24,0.742,0.412,1.122,0.415
	c2.721,0.034,5.443,0.025,8.166,0.018c0.569-0.001,1.017,0.147,1.185,0.749c0.199,0.716-0.271,1.299-1.088,1.305
	c-2.142,0.015-4.283,0.007-6.427,0.007c-0.261,0-0.52,0-0.887,0c1.52,2.76,1.744,5.57,0.823,8.536c1.957,0,3.85,0,5.74,0
	c0.29,0,0.58-0.01,0.871,0.009c0.624,0.035,1.006,0.431,1.006,1.02c0,0.583-0.381,1.003-1.011,1.015
	c-1.292,0.027-2.587,0.014-3.881,0.018c-1.026,0.001-2.053-0.019-3.08,0.012c-0.225,0.007-0.555,0.129-0.653,0.301
	c-1.395,2.457-3.458,4.227-5.788,5.735c-0.169,0.109-0.322,0.254-0.506,0.322c-1.256,0.479-1.776,1.537-2.116,2.713
	c-0.065,0.236,0.017,0.566,0.14,0.795c1.71,3.203,3.454,6.391,5.145,9.605c0.175,0.334,0.183,0.881,0.031,1.225
	c-0.108,0.246-0.667,0.502-0.929,0.428c-0.394-0.117-0.822-0.451-1.023-0.813c-1.487-2.666-2.923-5.361-4.375-8.047
	C48.131,57.32,48.011,57.111,47.841,56.807z M44.524,29.259c-0.003-0.034-0.002-0.103-0.016-0.164
	c-1.036-4.288-2.063-8.58-3.12-12.862c-0.268-1.086-1.441-1.544-2.464-1.028c-0.904,0.456-1.206,1.176-0.949,2.31
	c0.358,1.587,0.729,3.171,1.091,4.757c0.264,1.15,0.528,2.303,0.787,3.455c0.165,0.744-0.115,1.326-0.689,1.443
	c-0.626,0.128-1.092-0.217-1.279-0.949c-0.03-0.107-0.06-0.214-0.087-0.323c-0.858-3.428-1.708-6.858-2.58-10.282
	c-0.225-0.88-0.788-1.488-1.664-1.772c-1.564-0.512-3.39,0.885-3.096,2.388c0.301,1.529,0.636,3.053,0.982,4.57
	c0.401,1.758,0.848,3.509,1.247,5.27c0.179,0.783-0.174,1.359-0.844,1.495c-0.606,0.123-1.049-0.229-1.236-1.01
	c-0.181-0.759-0.349-1.52-0.516-2.281c-0.6-2.719-1.254-5.428-1.771-8.162c-0.329-1.752-1.789-2.927-3.551-2.629
	c-1.54,0.262-2.578,1.928-2.203,3.578c0.626,2.76,1.269,5.515,1.904,8.272c0.409,1.78,0.82,3.561,1.229,5.341
	c0.03,0.13,0.053,0.262,0.064,0.395c0.059,0.678-0.277,1.148-0.905,1.28c-0.552,0.113-1.015-0.22-1.176-0.911
	c-0.707-3.036-1.399-6.077-2.105-9.117c-0.159-0.692-0.357-1.377-0.526-2.067c-0.391-1.595-1.583-2.417-3.029-2.083
	c-1.386,0.319-2.096,1.62-1.729,3.194c1.072,4.623,2.152,9.245,3.228,13.866c0.529,2.28,1.068,4.556,1.572,6.84
	c0.26,1.179-0.166,2.134-1.126,2.696c-0.947,0.557-2.028,0.442-2.914-0.295c-1.425-1.183-2.854-2.359-4.278-3.541
	c-1.265-1.05-2.635-1.901-4.22-2.391c-1.232-0.38-2.359,0.027-2.918,1.091c-0.58,1.106-0.298,2.308,0.707,3.1
	c0.877,0.688,1.773,1.36,2.603,2.104c3.618,3.248,7.219,6.519,10.819,9.789c2.189,1.988,4.567,3.701,7.2,5.055
	c2.312,1.189,4.802,1.611,7.369,1.666c3.536,0.076,6.748-0.844,9.496-3.143c1.23-1.027,2.244-2.236,2.952-3.703
	c-1.529,0.932-3.022,1.896-4.473,2.926c-1.345,0.951-3.097,0.938-4.244-0.111c-1.152-1.049-1.397-2.84-0.413-4.199
	c0.628-0.869,1.428-1.643,2.251-2.342c0.824-0.699,1.771-1.252,2.781-1.949c-0.37-0.037-0.606-0.073-0.842-0.083
	c-4.013-0.192-8.024-0.385-12.037-0.563c-1.286-0.059-2.189-0.668-2.741-1.813c-0.473-0.981-0.472-1.972,0.021-2.935
	c-2.708-1.917-2.363-4.847-0.158-6.325c-0.384-0.866-0.435-1.759-0.083-2.651c0.353-0.895,1.039-1.475,1.894-1.839
	c-0.034-0.194-0.058-0.327-0.081-0.455c-0.335-1.794,0.973-3.304,2.793-3.235c2.966,0.113,5.93,0.24,8.896,0.329
	C41.723,29.295,43.103,29.259,44.524,29.259z M43.714,46.912c1.892,0.933,2.026,2.559,0.376,3.709
	c-0.385,0.266-0.784,0.514-1.169,0.779c-0.713,0.496-1.468,0.949-2.114,1.521c-0.562,0.492-1.047,1.092-1.473,1.707
	c-0.29,0.422-0.193,0.924,0.24,1.254c0.405,0.313,0.846,0.34,1.302,0.039c2.138-1.408,4.287-2.801,6.421-4.215
	c0.416-0.277,0.764-0.65,1.164-0.955c0.187-0.143,0.417-0.232,0.638-0.32c0.261-0.109,0.559-0.15,0.79-0.297
	c0.792-0.5,1.574-1.018,2.336-1.559c2.22-1.585,3.886-3.572,4.647-6.257c1.309-4.607-1.018-9.033-5.513-10.266
	c-1.104-0.302-2.282-0.408-3.434-0.462c-3.634-0.164-7.269-0.264-10.904-0.387c-1.761-0.06-3.523-0.113-5.285-0.176
	c-0.46-0.017-0.835,0.127-0.851,0.626c-0.017,0.488,0.298,0.771,0.787,0.831c0.067,0.011,0.134,0.008,0.202,0.012
	c1.135,0.05,2.272,0.098,3.41,0.151c1.693,0.082,3.386,0.171,5.079,0.25c0.498,0.024,0.948,0.232,0.994,0.713
	c0.032,0.326-0.191,0.792-0.455,0.994c-0.3,0.231-0.773,0.342-1.165,0.328c-3.232-0.097-6.464-0.239-9.694-0.362
	c-0.502-0.018-1.02,0.12-1.131,0.631c-0.083,0.381,0.025,0.891,0.24,1.215c0.15,0.227,0.618,0.315,0.955,0.339
	c1.268,0.085,2.539,0.112,3.811,0.173c1.648,0.076,3.297,0.165,4.947,0.243c0.505,0.024,0.928,0.269,0.955,0.755
	c0.021,0.336-0.192,0.767-0.439,1.017c-0.197,0.201-0.608,0.272-0.92,0.262c-3.143-0.108-6.284-0.256-9.426-0.365
	c-0.358-0.011-0.776,0.055-1.072,0.237c-0.515,0.315-0.84,0.81-0.685,1.47c0.156,0.663,0.808,1.151,1.604,1.188
	c1.225,0.061,2.451,0.098,3.677,0.147c2.142,0.086,4.281,0.169,6.421,0.264c0.711,0.031,1.125,0.447,1.108,1.073
	c-0.016,0.621-0.463,0.999-1.176,0.995c-0.11-0.002-0.221-0.02-0.334-0.024c-2.764-0.096-5.525-0.205-8.29-0.281
	c-0.904-0.026-1.44,0.445-1.481,1.198c-0.036,0.659,0.538,1.154,1.416,1.197c3.543,0.176,7.086,0.344,10.63,0.512
	c0.259,0.015,0.52,0.003,0.764,0.003c1.229-4.04,3.528-7.351,6.298-10.374c0.553-0.604,1.152-0.682,1.625-0.229
	c0.468,0.448,0.393,1.017-0.137,1.644c-0.993,1.174-2.007,2.336-2.912,3.577C45.283,43.097,44.336,44.912,43.714,46.912z"/>
<path fill-rule="evenodd" clip-rule="evenodd" fill="#3855CA" d="M58.084,8.775c0.877-0.59,1.642-1.273,2.534-1.673
	c2.509-1.123,4.878-0.7,6.892,1.125c2.059,1.864,2.718,4.238,1.773,6.87c-0.444,1.238-1.138,2.43-1.916,3.496
	c-2.455,3.362-5.63,6.015-8.827,8.634c-0.379,0.312-0.638,0.071-0.871-0.139c-2.313-2.095-4.659-4.153-6.899-6.323
	c-1.412-1.366-2.548-2.983-3.374-4.789c-1.916-4.184,0.417-8.679,4.915-9.384c2.071-0.325,3.87,0.347,5.392,1.774
	c0.145,0.138,0.281,0.284,0.425,0.425C58.141,8.806,58.167,8.809,58.084,8.775z M58.29,25.145c1.848-1.729,3.624-3.317,5.317-4.994
	c1.477-1.462,2.806-3.058,3.672-4.982c0.441-0.981,0.596-1.954,0.274-3.04C67,10.262,65.64,9,63.676,8.727
	c-1.729-0.24-3.495,0.682-4.42,2.302c-0.109,0.192-0.208,0.4-0.354,0.563c-0.426,0.476-1.065,0.428-1.423-0.097
	c-0.126-0.184-0.21-0.396-0.329-0.582c-0.994-1.575-2.428-2.367-4.282-2.18c-1.938,0.195-3.233,1.291-3.851,3.146
	c-0.444,1.344-0.201,2.656,0.547,3.78c1.007,1.517,2.065,3.028,3.307,4.35C54.545,21.79,56.416,23.385,58.29,25.145z"/>
</svg>
