<?xml version="1.0" encoding="utf-8"?>
<!-- Generator: Adobe Illustrator 16.0.0, SVG Export Plug-In . SVG Version: 6.00 Build 0)  -->
<!DOCTYPE svg PUBLIC "-//W3C//DTD SVG 1.1//EN" "http://www.w3.org/Graphics/SVG/1.1/DTD/svg11.dtd">
<svg version="1.1" id="Layer_1" xmlns="http://www.w3.org/2000/svg" xmlns:xlink="http://www.w3.org/1999/xlink" x="0px" y="0px"
	 width="73px" height="73px" viewBox="0 0 73 73" enable-background="new 0 0 73 73" xml:space="preserve">
<g>
	<polygon fill="#1A2151" points="44.732,19.489 44.732,19.491 44.732,19.491 	"/>
	<g>
		
			<line fill="none" stroke="#3855CA" stroke-width="2" stroke-linecap="round" stroke-linejoin="round" stroke-miterlimit="10" x1="34.962" y1="10.443" x2="34.962" y2="27.39"/>
		
			<line fill="none" stroke="#3855CA" stroke-width="2" stroke-linecap="round" stroke-linejoin="round" stroke-miterlimit="10" x1="40.583" y1="16.148" x2="29.341" y2="16.148"/>
	</g>
	<path fill="#1A2151" d="M68.951,40.082c0-1.209-0.105-1.353-1.25-1.707c-6.897-2.136-13.286-3.75-19.53-4.935
		c-4.028-0.764-8.01-1.15-11.836-1.15c-3.276,0-6.546,0.283-9.72,0.842c-7.102,1.252-14.366,3.053-21.591,5.353
		c-0.834,0.266-0.97,0.45-0.971,1.316c-0.005,7.173-0.006,14.346,0,21.52c0,0.91,0.334,1.232,1.274,1.234l5.583,0.002l6.429-0.002
		c0.968-0.002,1.285-0.322,1.303-1.319c0.161-8.926,6.97-16.417,15.839-17.426c0.679-0.077,1.368-0.116,2.047-0.116
		c9.66,0,17.659,7.843,17.832,17.482c0.02,1.082,0.319,1.378,1.391,1.379l5.896,0.001l5.896-0.001c1.132,0,1.408-0.274,1.409-1.395
		c0.003-2.526,0.002-5.052,0.002-7.578l0-3.034l0-2.995L68.951,40.082z M66.931,54.773v3.974c0,0.132-0.012,0.259-0.029,0.404
		l-0.129,1.342H56.428l-0.147-1.183c-1.224-9.794-9.176-17.208-18.908-17.628c-10.57-0.469-19.533,7.272-20.687,17.616l-0.134,1.2
		H6.164l-0.073-1.527c-0.012-0.199-0.022-0.387-0.022-0.574v-4.334c0.001-4.031,0.002-8.063-0.015-12.093
		c-0.005-1.151,0.564-1.905,1.692-2.241c6.289-1.874,12.515-3.384,18.506-4.486c6.896-1.267,13.961-1.236,21.064,0.093
		c5.907,1.104,11.961,2.59,17.995,4.416c0.409,0.125,1.643,0.501,1.636,2.052C66.93,46.126,66.93,50.45,66.931,54.773z"/>
</g>
</svg>
