<?xml version="1.0" encoding="utf-8"?>
<!-- Generator: Adobe Illustrator 16.0.0, SVG Export Plug-In . SVG Version: 6.00 Build 0)  -->
<!DOCTYPE svg PUBLIC "-//W3C//DTD SVG 1.1//EN" "http://www.w3.org/Graphics/SVG/1.1/DTD/svg11.dtd">
<svg version="1.1" id="Layer_1" xmlns="http://www.w3.org/2000/svg" xmlns:xlink="http://www.w3.org/1999/xlink" x="0px" y="0px"
	 width="72px" height="72px" viewBox="0 0 72 72" enable-background="new 0 0 72 72" xml:space="preserve">
<path fill="#1A2151" d="M64.592,24.501c-2.65-0.362-5.296-0.748-7.942-1.134c-2.147-0.313-4.294-0.626-6.443-0.926
	c-1.395-0.195-2.378-0.921-3.007-2.217c-1.293-2.667-2.607-5.324-3.92-7.98c-0.851-1.722-1.702-3.443-2.548-5.168
	c-0.702-1.431-1.607-2.32-2.849-2.802c-0.635-0.246-1.283-0.371-1.924-0.371c-1.931,0-3.653,1.142-4.605,3.055
	c-2.215,4.452-4.411,8.914-6.6,13.38c-0.591,1.21-1.508,1.888-2.803,2.072c-2.394,0.336-4.784,0.685-7.174,1.033
	C12.329,23.8,9.882,24.157,7.433,24.5c-1.886,0.266-3.124,0.944-3.896,2.134c-0.301,0.465-0.514,1.031-0.74,1.632
	c-0.088,0.235-0.177,0.471-0.271,0.702v1.331c0.306,1.695,1.444,2.899,2.684,4.083c2.021,1.934,4.021,3.889,6.02,5.845
	c1.228,1.2,2.455,2.401,3.688,3.597c0.976,0.945,1.341,2.025,1.114,3.301c-0.534,3.006-1.048,6.016-1.563,9.025
	c-0.297,1.74-0.594,3.479-0.896,5.219c-0.279,1.607-0.206,2.713,0.248,3.697c0.85,1.846,2.601,2.992,4.571,2.992
	c0.878,0,1.747-0.219,2.58-0.65c4.104-2.131,8.474-4.406,12.832-6.768c0.762-0.412,1.482-0.613,2.2-0.613
	c0.72,0,1.444,0.203,2.212,0.617c3.254,1.764,6.593,3.508,9.822,5.195l2.954,1.545c1.983,1.039,3.836,0.941,5.548-0.301
	c1.714-1.246,2.356-2.967,1.962-5.26c-0.272-1.586-0.541-3.174-0.81-4.76c-0.555-3.273-1.109-6.547-1.693-9.816
	c-0.244-1.359,0.133-2.498,1.152-3.482c1.947-1.883,3.886-3.775,5.825-5.667c1.578-1.541,3.157-3.081,4.74-4.617
	c1.116-1.082,1.69-2.253,1.754-3.579C69.606,27.088,67.646,24.918,64.592,24.501z M66.263,32.049
	c-1.04,1.011-2.074,2.032-3.108,3.053c-2.24,2.212-4.556,4.498-6.919,6.668c-2.035,1.871-2.694,3.929-2.139,6.677
	c0.65,3.215,1.196,6.496,1.724,9.668c0.222,1.338,0.445,2.674,0.675,4.008c0.254,1.477-0.143,2.598-1.178,3.334
	c-1.022,0.725-2.177,0.762-3.511,0.061c-1.651-0.873-3.305-1.74-4.958-2.607c-2.678-1.402-5.354-2.805-8.017-4.232
	c-1.948-1.043-3.704-1.041-5.654,0.002c-2.783,1.492-5.579,2.957-8.375,4.422c-1.535,0.803-3.07,1.607-4.604,2.416
	c-0.413,0.217-1.046,0.506-1.781,0.506c-0.387,0-0.769-0.078-1.134-0.236c-0.872-0.371-1.897-1.238-1.819-3.248
	c0.001-0.045,0.006-0.088,0.013-0.131l1.32-7.715c0.427-2.496,0.854-4.99,1.275-7.486c0.304-1.814-0.212-3.346-1.579-4.683
	c-1.731-1.694-3.465-3.385-5.2-5.075l-2.659-2.593c-0.961-0.938-1.922-1.876-2.889-2.808c-1.078-1.04-1.414-2.181-1-3.39
	c0.611-1.79,2.263-2.026,2.806-2.104c4.971-0.708,9.941-1.422,14.907-2.162c1.866-0.276,3.192-1.268,4.055-3.031
	c1.148-2.343,2.305-4.683,3.462-7.021l1.917-3.876c0.421-0.848,0.841-1.694,1.252-2.546C33.922,6.3,35.13,5.96,36.006,5.96
	c0,0,0.003,0,0.003,0c1.259,0.001,2.22,0.659,2.857,1.955c0.685,1.393,1.377,2.782,2.069,4.172c1.415,2.839,2.878,5.774,4.252,8.697
	c1.069,2.272,2.635,3.427,5.079,3.742c3.09,0.399,6.22,0.86,9.247,1.307c1.649,0.243,3.299,0.486,4.95,0.721
	c0.542,0.078,2.191,0.313,2.805,2.11C67.677,29.871,67.339,31.008,66.263,32.049z"/>
<path fill="#3855CA" d="M28.55,44.816c-0.34-0.26-0.68-0.52-1.036-0.756c-0.175-0.117-0.371-0.178-0.568-0.178
	c-0.309,0-0.6,0.146-0.797,0.402c-0.333,0.432-0.27,0.996,0.153,1.369c0.352,0.311,0.731,0.594,1.11,0.875l0.26,0.195
	c2.441,1.838,5.249,2.797,8.343,2.852c4.31-0.105,7.007-1.656,9.729-3.951c0.402-0.34,0.45-0.92,0.112-1.348
	c-0.329-0.416-0.922-0.51-1.373-0.207c-0.345,0.232-0.678,0.484-1.01,0.738c-0.306,0.232-0.612,0.467-0.928,0.686
	c-1.905,1.324-4.165,2.023-6.536,2.023c-2.381,0-4.65-0.705-6.562-2.037C29.141,45.266,28.845,45.041,28.55,44.816z"/>
<path fill="#3855CA" d="M29.369,36.105c0.967-0.004,1.792-0.83,1.803-1.803c0.005-0.475-0.184-0.93-0.532-1.282
	c-0.349-0.353-0.802-0.547-1.275-0.547c-0.973,0.005-1.793,0.829-1.798,1.8c-0.003,0.489,0.188,0.951,0.535,1.302
	c0.34,0.342,0.788,0.53,1.258,0.53"/>
<path fill="#3855CA" d="M42.651,36.106c0.966-0.001,1.788-0.822,1.795-1.794c0.004-0.491-0.186-0.954-0.534-1.306
	c-0.341-0.343-0.79-0.532-1.263-0.532c-0.967,0.003-1.794,0.827-1.808,1.802c-0.007,0.474,0.181,0.929,0.53,1.282
	s0.802,0.548,1.277,0.548"/>
</svg>
